# Blender v2.91.0 OBJ File: 'piano.blend'
# www.blender.org
mtllib piano.mtl
o Cube
v -1.205987 1.928205 -4.844923
v -1.205987 -2.579282 -4.844923
v -1.205987 1.928205 4.844923
v -1.205987 -2.579282 4.844923
v -1.013602 2.188348 -5.362031
v -1.013602 -2.800231 -5.362031
v -1.013602 2.188348 5.362031
v -1.013602 -2.800231 5.362031
v -3.539482 2.188348 -5.362031
v -3.539482 -2.800231 -5.362031
v -3.539482 2.188348 5.362031
v -3.539482 -2.800231 5.362031
v -1.013602 1.963445 -4.920680
v -1.013602 1.963445 4.920680
v -1.013602 -2.614522 4.920680
v -1.013602 -2.614522 -4.920680
vt 0.625000 0.500000
vt 0.875000 0.500000
vt 0.875000 0.750000
vt 0.625000 0.750000
vt 0.375000 0.750000
vt 0.625000 1.000000
vt 0.375000 1.000000
vt 0.375000 0.000000
vt 0.625000 0.000000
vt 0.625000 0.250000
vt 0.375000 0.250000
vt 0.125000 0.500000
vt 0.375000 0.500000
vt 0.125000 0.750000
vt 0.375000 0.250000
vt 0.625000 0.250000
vt 0.875000 0.750000
vt 0.375000 1.000000
vt 0.000000 0.000000
vt 0.613729 0.739711
vt 0.384307 0.739711
vt 0.384307 0.510289
vt 0.613729 0.510289
vn 0.0000 1.0000 0.0000
vn 0.0000 0.0000 1.0000
vn -1.0000 0.0000 0.0000
vn 0.0000 -1.0000 0.0000
vn 0.0000 0.0000 -1.0000
vn 1.0000 0.0000 0.0000
vn 0.3590 0.0442 -0.9323
vn 0.1802 0.9836 0.0000
vn 0.1802 -0.9836 0.0000
vn 0.3664 0.0000 0.9305
vn 0.9997 0.0201 -0.0102
usemtl Material
s off
f 5/1/1 9/2/1 11/3/1 7/4/1
f 8/5/2 7/4/2 11/6/2 12/7/2
f 12/8/3 11/9/3 9/10/3 10/11/3
f 10/12/4 6/13/4 8/5/4 12/14/4
f 10/11/5 9/10/5 5/1/5 6/13/5
f 2/15/6 1/16/6 3/17/6 4/18/6
f 4/18/7 3/17/7 7/19/7 14/20/7 15/21/7
f 2/15/8 4/18/8 15/21/8 16/22/8
f 6/13/6 16/22/6 15/21/6 8/5/6
f 7/19/6 14/20/6 13/23/6 5/1/6
f 3/17/9 1/16/9 13/23/9 14/20/9
f 1/16/10 2/15/10 16/22/10 13/23/10
f 5/1/6 13/23/6 16/22/6 6/13/6
f 8/5/11 15/21/11 14/20/11 3/17/11 7/19/11
o Cube.001_Cube.002
v -1.219506 4.437711 4.061520
v -1.219506 6.606059 4.061520
v -1.219506 4.437711 -4.328130
v -1.219506 6.606059 -4.328130
v -3.526025 2.182203 5.401258
v -3.526025 7.224347 5.401258
v -3.526025 2.182203 -5.401258
v -3.526025 7.224347 -5.401258
v -1.027641 2.182203 5.401258
v -1.027641 7.224347 5.401258
v -1.027641 2.182203 -5.401258
v -1.027641 7.224347 -5.401258
v -1.027641 4.223300 -5.157718
v -1.027641 4.223300 4.891108
v -1.027641 6.820470 4.891108
v -1.027641 6.820470 -5.157718
vt 0.375000 0.000000
vt 0.625000 0.000000
vt 0.625000 0.250000
vt 0.375000 0.250000
vt 0.625000 0.500000
vt 0.375000 0.500000
vt 0.375000 0.750000
vt 0.625000 0.750000
vt 0.625000 1.000000
vt 0.375000 1.000000
vt 0.125000 0.500000
vt 0.125000 0.750000
vt 0.875000 0.500000
vt 0.875000 0.750000
vt 0.402920 0.027920
vt 0.402920 0.222080
vt 0.597080 0.222080
vt 0.597080 0.027920
vt 0.476202 0.505636
vt 0.604975 0.505636
vt 0.604975 0.738194
vt 0.383721 0.008721
vt 0.476202 0.738194
vn -1.0000 0.0000 0.0000
vn 0.0000 0.0000 -1.0000
vn 0.0000 0.0000 1.0000
vn 0.0000 -1.0000 0.0000
vn 0.0000 1.0000 0.0000
vn 1.0000 0.0000 0.0000
vn 0.9743 0.0000 0.2253
vn 0.9743 0.0000 -0.2253
vn 0.7452 0.6668 0.0000
vn 0.7452 -0.6668 0.0000
usemtl Material.001
s off
f 21/24/12 22/25/12 24/26/12 23/27/12
f 23/27/13 24/26/13 28/28/13 27/29/13
f 25/30/14 26/31/14 22/32/14 21/33/14
f 23/34/15 27/29/15 25/30/15 21/35/15
f 28/28/16 24/36/16 22/37/16 26/31/16
f 17/38/17 19/39/17 20/40/17 18/41/17
f 20/40/18 19/39/18 29/42/18 32/43/18
f 17/38/19 18/41/19 31/44/19 30/45/19
f 19/39/20 17/38/20 30/46/20 29/42/20
f 18/41/21 20/40/21 32/43/21 31/44/21
f 27/29/17 29/42/17 30/46/17 25/30/17
f 25/30/17 30/45/17 31/44/17 26/31/17
f 28/28/17 32/43/17 29/42/17 27/29/17
f 26/31/17 31/44/17 32/43/17 28/28/17
o Cube.002_Cube.003
v -1.044048 -2.834865 5.448891
v -1.044048 -1.608081 5.448891
v -1.044048 -2.834865 4.804250
v -1.044048 -1.608081 4.804250
v 2.172834 -2.834865 5.448891
v 2.172834 -2.834865 4.804250
v 0.979430 -1.957206 5.448891
v 0.979430 -1.957206 4.804250
v 1.395580 -2.020830 5.448891
v 1.395580 -2.020830 4.804250
v 1.803471 -2.043533 5.448891
v 1.803471 -2.043533 4.804250
v 2.172834 -2.025170 5.448891
v 2.172834 -2.025170 4.804250
v -0.044622 -1.608081 5.448891
v -0.044622 -1.608081 4.804250
v 0.186025 -1.718460 5.448891
v 0.186025 -1.718460 4.804250
v 0.571015 -1.855109 5.448891
v 0.571015 -1.855109 4.804250
vt 0.375000 0.000000
vt 0.625000 0.000000
vt 0.625000 0.250000
vt 0.375000 0.250000
vt 0.125000 0.500000
vt 0.375000 0.500000
vt 0.375000 0.750000
vt 0.125000 0.750000
vt 1.000000 0.545426
vt 1.000000 0.517976
vt 0.968750 0.517976
vt 0.968750 0.545426
vt 0.937500 0.517976
vt 0.937500 0.545426
vt 0.907438 0.545426
vt 0.907438 0.517976
vt 0.083285 0.517976
vt 0.062500 0.517976
vt 0.062500 0.545426
vt 0.083285 0.545426
vt 0.031250 0.517976
vt 0.031250 0.545426
vt 0.000000 0.517976
vt 0.000000 0.545426
vt 0.540004 0.500000
vt 0.625000 0.327670
vt 0.602506 0.345595
vt 0.574659 0.375515
vt 0.553853 0.407255
vt 0.540888 0.439596
vt 0.536261 0.471295
vt 0.540004 0.750000
vt 0.625000 0.922330
vt 0.625000 1.000000
vt 0.375000 1.000000
vt 0.536261 0.778705
vt 0.540888 0.810404
vt 0.553854 0.842745
vt 0.574659 0.874485
vt 0.602506 0.904405
vt 0.875000 0.500000
vt 0.875000 0.750000
vt 0.797330 0.750000
vt 0.797330 0.500000
vn -1.0000 0.0000 0.0000
vn 0.0000 -1.0000 0.0000
vn 0.1511 0.9885 0.0000
vn 0.0556 0.9985 0.0000
vn -0.0497 0.9988 0.0000
vn 0.4317 0.9020 0.0000
vn 0.3345 0.9424 0.0000
vn 0.2425 0.9701 0.0000
vn -0.0000 0.0000 -1.0000
vn 1.0000 0.0000 0.0000
vn 0.0000 0.0000 1.0000
vn 0.0000 1.0000 0.0000
usemtl Material.004
s off
f 33/47/22 34/48/22 36/49/22 35/50/22
f 35/51/23 38/52/23 37/53/23 33/54/23
f 40/55/24 39/56/24 41/57/24 42/58/24
f 42/58/25 41/57/25 43/59/25 44/60/25
f 46/61/26 44/60/26 43/59/26 45/62/26
f 47/63/27 49/64/27 50/65/27 48/66/27
f 50/65/28 49/64/28 51/67/28 52/68/28
f 39/69/29 40/70/29 52/68/29 51/67/29
f 46/71/30 38/52/30 35/50/30 36/49/30 48/72/30 50/73/30 52/74/30 40/75/30 42/76/30 44/77/30
f 45/78/31 37/53/31 38/52/31 46/71/31
f 47/79/32 34/80/32 33/81/32 37/53/32 45/78/32 43/82/32 41/83/32 39/84/32 51/85/32 49/86/32
f 36/87/33 34/88/33 47/89/33 48/90/33
o Cube.003_Cube.004
v -1.044048 -2.806646 -4.738403
v -1.044048 -1.579861 -4.738403
v -1.044048 -2.806646 -5.383044
v -1.044048 -1.579861 -5.383044
v 2.172834 -2.806646 -4.738403
v 2.172834 -2.806646 -5.383044
v 0.979430 -1.957207 -4.738403
v 0.979430 -1.957207 -5.383044
v 1.395580 -2.020830 -4.738403
v 1.395580 -2.020830 -5.383044
v 1.803471 -2.043534 -4.738403
v 1.803471 -2.043534 -5.383044
v 2.172834 -2.025170 -5.383044
v 2.172834 -2.025170 -4.738403
v -0.103590 -1.579861 -4.738403
v 0.186025 -1.718460 -4.738403
v -0.103590 -1.579861 -5.383044
v 0.186025 -1.718460 -5.383044
v 0.571015 -1.855109 -4.738403
v 0.571015 -1.855109 -5.383044
vt 0.375000 0.000000
vt 0.625000 0.000000
vt 0.625000 0.250000
vt 0.375000 0.250000
vt 0.125000 0.500000
vt 0.375000 0.500000
vt 0.375000 0.750000
vt 0.125000 0.750000
vt 1.000000 0.979220
vt 1.000000 0.951770
vt 0.968750 0.951770
vt 0.968750 0.979220
vt 0.937500 0.951770
vt 0.937500 0.979220
vt 0.907438 0.979220
vt 0.907438 0.951770
vt 0.062500 0.979220
vt 0.088600 0.979220
vt 0.088600 0.951770
vt 0.062500 0.951770
vt 0.031250 0.951770
vt 0.031250 0.979220
vt 0.000000 0.951770
vt 0.000000 0.979220
vt 0.534253 0.500000
vt 0.625000 0.323088
vt 0.596756 0.345595
vt 0.568909 0.375515
vt 0.548103 0.407255
vt 0.535137 0.439596
vt 0.530511 0.471295
vt 0.534253 0.750000
vt 0.596756 0.904405
vt 0.625000 0.926912
vt 0.625000 1.000000
vt 0.375000 1.000000
vt 0.530511 0.778705
vt 0.535137 0.810404
vt 0.548103 0.842745
vt 0.568909 0.874485
vt 0.875000 0.500000
vt 0.875000 0.750000
vt 0.801912 0.750000
vt 0.801912 0.500000
vn -1.0000 0.0000 0.0000
vn 0.0000 -1.0000 0.0000
vn 0.1511 0.9885 0.0000
vn 0.0556 0.9985 0.0000
vn -0.0497 0.9988 0.0000
vn 0.4317 0.9020 0.0000
vn 0.3345 0.9424 0.0000
vn 0.2425 0.9701 0.0000
vn -0.0000 0.0000 -1.0000
vn 1.0000 0.0000 0.0000
vn -0.0000 0.0000 1.0000
vn 0.0000 1.0000 0.0000
usemtl Material.005
s off
f 53/91/34 54/92/34 56/93/34 55/94/34
f 55/95/35 58/96/35 57/97/35 53/98/35
f 60/99/36 59/100/36 61/101/36 62/102/36
f 62/102/37 61/101/37 63/103/37 64/104/37
f 65/105/38 64/104/38 63/103/38 66/106/38
f 70/107/39 69/108/39 67/109/39 68/110/39
f 70/107/40 68/110/40 71/111/40 72/112/40
f 72/112/41 71/111/41 59/113/41 60/114/41
f 65/115/42 58/96/42 55/94/42 56/93/42 69/116/42 70/117/42 72/118/42 60/119/42 62/120/42 64/121/42
f 66/122/43 57/97/43 58/96/43 65/115/43
f 68/123/44 67/124/44 54/125/44 53/126/44 57/97/44 66/122/44 63/127/44 61/128/44 59/129/44 71/130/44
f 56/131/45 54/132/45 67/133/45 69/134/45
o Cube.004_Cube.005
v -1.060947 -1.622823 5.472771
v -1.060947 2.208072 5.472771
v -1.060947 -1.622823 4.850145
v -1.060947 2.208072 4.850145
v -0.150259 -1.622823 5.472771
v -0.150259 2.208072 5.472771
v -0.150259 -1.622823 4.850145
v -0.150259 2.208072 4.850145
vt 0.375000 0.000000
vt 0.625000 0.000000
vt 0.625000 0.250000
vt 0.375000 0.250000
vt 0.625000 0.500000
vt 0.375000 0.500000
vt 0.625000 0.750000
vt 0.375000 0.750000
vt 0.625000 1.000000
vt 0.375000 1.000000
vt 0.125000 0.500000
vt 0.125000 0.750000
vt 0.875000 0.500000
vt 0.875000 0.750000
vn -1.0000 0.0000 0.0000
vn 0.0000 0.0000 -1.0000
vn 1.0000 0.0000 0.0000
vn 0.0000 0.0000 1.0000
vn 0.0000 -1.0000 0.0000
vn 0.0000 1.0000 0.0000
usemtl Material.003
s off
f 73/135/46 74/136/46 76/137/46 75/138/46
f 75/138/47 76/137/47 80/139/47 79/140/47
f 79/140/48 80/139/48 78/141/48 77/142/48
f 77/142/49 78/141/49 74/143/49 73/144/49
f 75/145/50 79/140/50 77/142/50 73/146/50
f 80/139/51 76/147/51 74/148/51 78/141/51
o Cube.005_Cube.006
v -1.060947 -1.603227 -4.718574
v -1.060947 2.227669 -4.718574
v -1.060947 -1.603227 -5.341199
v -1.060947 2.227669 -5.341199
v -0.150259 -1.603227 -4.718574
v -0.150259 2.227669 -4.718574
v -0.150259 -1.603227 -5.341199
v -0.150259 2.227669 -5.341199
vt 0.375000 0.000000
vt 0.625000 0.000000
vt 0.625000 0.250000
vt 0.375000 0.250000
vt 0.625000 0.500000
vt 0.375000 0.500000
vt 0.625000 0.750000
vt 0.375000 0.750000
vt 0.625000 1.000000
vt 0.375000 1.000000
vt 0.125000 0.500000
vt 0.125000 0.750000
vt 0.875000 0.500000
vt 0.875000 0.750000
vn -1.0000 0.0000 0.0000
vn 0.0000 0.0000 -1.0000
vn 1.0000 0.0000 0.0000
vn 0.0000 0.0000 1.0000
vn 0.0000 -1.0000 0.0000
vn 0.0000 1.0000 0.0000
usemtl Material.006
s off
f 81/149/52 82/150/52 84/151/52 83/152/52
f 83/152/53 84/151/53 88/153/53 87/154/53
f 87/154/54 88/153/54 86/155/54 85/156/54
f 85/156/55 86/155/55 82/157/55 81/158/55
f 83/159/56 87/154/56 85/156/56 81/160/56
f 88/153/57 84/161/57 82/162/57 86/155/57
o Cube.006_Cube.007
v -0.843601 2.344354 4.858623
v -0.843601 2.344354 -4.778983
v -1.018412 2.034697 5.427885
v -1.018412 3.726816 5.427885
v -1.018412 2.034697 -5.395278
v -1.018412 3.726816 -5.395278
v 2.351007 2.034697 5.427885
v 2.351007 2.034697 -5.395278
v -0.843601 3.726816 4.858623
v -0.843601 3.726816 -4.778983
v 2.351007 2.344354 -4.778983
v 2.351007 2.344354 4.858623
v 1.855524 3.176250 5.427885
v 1.855524 3.176250 4.858623
v 1.855524 3.176250 -4.778983
v 1.855524 3.176250 -5.395278
v 2.292136 3.110236 5.427885
v 2.292136 3.110236 4.858623
v 2.292136 3.110236 -4.778983
v 2.292136 3.110236 -5.395278
v 2.351007 3.106719 4.858623
v 2.351007 3.106719 5.427885
v 2.351007 3.106719 -5.395278
v 2.351007 3.106719 -4.778983
v 0.420481 3.726816 5.427885
v 0.420481 3.726816 4.858623
v 0.655438 3.584687 5.427885
v 0.655438 3.584687 4.858623
v 0.655438 3.584687 -4.778983
v 0.420481 3.726816 -5.395278
v 0.655438 3.584687 -5.395278
v 0.420481 3.726816 -4.778983
v 1.021144 3.418122 5.427885
v 1.021144 3.418122 4.858623
v 1.021144 3.418122 -4.778983
v 1.021144 3.418122 -5.395278
v 1.426364 3.280209 5.427885
v 1.426364 3.280209 4.858623
v 1.426364 3.280209 -4.778983
v 1.426364 3.280209 -5.395278
vt 0.375000 0.000000
vt 0.625000 0.000000
vt 0.625000 0.250000
vt 0.375000 0.250000
vt 0.125000 0.500000
vt 0.375000 0.500000
vt 0.375000 0.750000
vt 0.125000 0.750000
vt 0.362030 0.500000
vt 0.125000 0.500000
vt 0.125000 0.750000
vt 0.362030 0.750000
vt 0.497907 0.799734
vt 0.543657 0.786763
vt 0.533904 0.754368
vt 0.488154 0.767338
vt 0.768239 0.514236
vt 0.558251 0.361224
vt 0.604001 0.374194
vt 0.768239 0.500000
vt 0.062500 0.953222
vt 0.579392 0.401328
vt 0.543657 0.463237
vt 0.497907 0.450266
vt 0.488154 0.482662
vt 0.533904 0.495632
vt 0.487635 0.487030
vt 0.533385 0.500000
vt 0.533642 0.861642
vt 0.579392 0.848671
vt 0.031250 0.519184
vt 0.513267 0.831576
vt 0.533642 0.388358
vt 0.031250 0.953222
vt 0.559017 0.431395
vt 0.625000 0.356761
vt 0.625000 0.893239
vt 0.625000 1.000000
vt 0.375000 1.000000
vt 0.533385 0.750000
vt 0.559017 0.818605
vt 0.604001 0.875806
vt 0.579250 0.343791
vt 0.579250 0.250000
vt 0.375000 0.250000
vt 0.375000 0.487030
vt 0.513267 0.418424
vt 0.375000 0.762970
vt 0.375000 1.000000
vt 0.579250 1.000000
vt 0.579250 0.906209
vt 0.558251 0.888776
vt 0.487635 0.762970
vt 0.862030 0.514236
vt 0.768239 0.750000
vt 0.093750 0.519184
vt 0.768239 0.736851
vt 0.062500 0.519184
vn -1.0000 0.0000 0.0000
vn 0.0000 -1.0000 0.0000
vn 0.0000 1.0000 0.0000
vn 0.1495 0.9888 0.0000
vn 0.5176 0.8556 0.0000
vn 0.4145 0.9101 0.0000
vn 0.0596 0.9982 0.0000
vn 0.3222 0.9467 0.0000
vn 0.2354 0.9719 0.0000
vn -0.0000 0.0000 -1.0000
vn 0.0000 0.0000 1.0000
vn 1.0000 0.0000 0.0000
usemtl Material.002
s off
f 91/163/58 92/164/58 94/165/58 93/166/58
f 93/167/59 96/168/59 95/169/59 91/170/59
f 99/171/60 90/172/60 89/173/60 100/174/60
f 102/175/61 101/176/61 105/177/61 106/178/61
f 120/179/62 117/180/62 119/181/62 118/182/62
f 119/181/63 117/180/63 123/183/63 124/184/63
f 104/185/61 103/186/61 107/187/61 108/188/61
f 108/188/64 107/187/64 112/189/64 111/190/64
f 122/191/65 121/192/65 125/193/65 126/194/65
f 124/184/65 123/195/65 127/196/65 128/197/65
f 104/185/66 128/197/66 127/196/66 103/186/66
f 111/190/67 96/168/67 93/166/67 94/165/67 118/198/67 119/181/67 124/184/67 128/197/67 104/185/67 108/188/67
f 113/199/68 92/200/68 91/201/68 95/169/68 110/202/68 105/177/68 101/176/68 125/203/68 121/192/68 115/204/68
f 120/205/68 98/206/68 90/207/68 99/208/68 112/189/68 107/187/68 103/186/68 127/209/68 123/195/68 117/180/68
f 100/210/67 89/211/67 97/212/67 114/213/67 116/214/67 122/191/67 126/194/67 102/175/67 106/178/67 109/215/67
f 109/215/69 110/202/69 95/169/69 100/210/69
f 114/213/60 97/212/60 92/200/60 113/199/60
f 89/211/69 90/207/69 98/216/69 97/212/69
f 96/168/69 99/171/69 100/174/69 95/169/69
f 112/189/69 99/208/69 96/168/69 111/190/69
f 113/217/62 115/218/62 116/214/62 114/219/62
f 116/214/63 115/204/63 121/220/63 122/191/63
f 102/175/66 126/194/66 125/193/66 101/176/66
f 106/178/64 105/177/64 110/202/64 109/215/64
f 120/205/60 118/198/60 94/165/60 98/206/60
f 92/200/60 97/212/60 98/216/60 94/165/60
o Cube.007_Cube.008
v -0.917398 2.233637 4.858623
v -0.917398 2.981776 4.858623
v -0.917398 2.233637 -4.778983
v -0.917398 2.981776 -4.778983
v 2.144969 2.233637 4.858623
v 2.144969 2.981776 4.858623
v 2.144969 2.233637 -4.778983
v 2.144969 2.981776 -4.778983
vt 0.375000 0.000000
vt 0.625000 0.000000
vt 0.625000 0.250000
vt 0.375000 0.250000
vt 0.625000 0.500000
vt 0.375000 0.500000
vt 0.625000 0.750000
vt 0.375000 0.750000
vt 0.625000 1.000000
vt 0.375000 1.000000
vt 0.125000 0.500000
vt 0.125000 0.750000
vt 0.875000 0.500000
vt 0.875000 0.750000
vn -1.0000 0.0000 0.0000
vn 0.0000 0.0000 -1.0000
vn 1.0000 0.0000 0.0000
vn 0.0000 0.0000 1.0000
vn 0.0000 -1.0000 0.0000
vn 0.0000 1.0000 0.0000
usemtl Material.007
s off
f 129/221/70 130/222/70 132/223/70 131/224/70
f 131/224/71 132/223/71 136/225/71 135/226/71
f 135/226/72 136/225/72 134/227/72 133/228/72
f 133/228/73 134/227/73 130/229/73 129/230/73
f 131/231/74 135/226/74 133/228/74 129/232/74
f 136/225/75 132/233/75 130/234/75 134/227/75
o Cube.008_Cube.009
v -1.693369 -2.521409 1.304959
v -1.693369 -2.273740 1.304959
v -1.693369 -2.521409 0.773559
v -1.693369 -2.273740 0.773559
v 1.693369 -2.521409 1.304959
v 1.693369 -2.273740 1.304959
v 1.693369 -2.521409 0.773559
v 1.693369 -2.273740 0.773559
vt 0.375000 0.000000
vt 0.625000 0.000000
vt 0.625000 0.250000
vt 0.375000 0.250000
vt 0.625000 0.500000
vt 0.375000 0.500000
vt 0.625000 0.750000
vt 0.375000 0.750000
vt 0.625000 1.000000
vt 0.375000 1.000000
vt 0.125000 0.500000
vt 0.125000 0.750000
vt 0.875000 0.500000
vt 0.875000 0.750000
vn -1.0000 0.0000 0.0000
vn 0.0000 0.0000 -1.0000
vn 1.0000 0.0000 0.0000
vn 0.0000 0.0000 1.0000
vn 0.0000 -1.0000 0.0000
vn 0.0000 1.0000 0.0000
usemtl Material.008
s off
f 137/235/76 138/236/76 140/237/76 139/238/76
f 139/238/77 140/237/77 144/239/77 143/240/77
f 143/240/78 144/239/78 142/241/78 141/242/78
f 141/242/79 142/241/79 138/243/79 137/244/79
f 139/245/80 143/240/80 141/242/80 137/246/80
f 144/239/81 140/247/81 138/248/81 142/241/81
o Cube.009_Cube.010
v -1.693369 -2.501812 -0.760768
v -1.693369 -2.254143 -0.760768
v -1.693369 -2.501812 -1.292168
v -1.693369 -2.254143 -1.292168
v 1.693369 -2.501812 -0.760768
v 1.693369 -2.254143 -0.760768
v 1.693369 -2.501812 -1.292168
v 1.693369 -2.254143 -1.292168
vt 0.375000 0.000000
vt 0.625000 0.000000
vt 0.625000 0.250000
vt 0.375000 0.250000
vt 0.625000 0.500000
vt 0.375000 0.500000
vt 0.625000 0.750000
vt 0.375000 0.750000
vt 0.625000 1.000000
vt 0.375000 1.000000
vt 0.125000 0.500000
vt 0.125000 0.750000
vt 0.875000 0.500000
vt 0.875000 0.750000
vn -1.0000 0.0000 0.0000
vn 0.0000 0.0000 -1.0000
vn 1.0000 0.0000 0.0000
vn 0.0000 0.0000 1.0000
vn 0.0000 -1.0000 0.0000
vn 0.0000 1.0000 0.0000
usemtl Material.009
s off
f 145/249/82 146/250/82 148/251/82 147/252/82
f 147/252/83 148/251/83 152/253/83 151/254/83
f 151/254/84 152/253/84 150/255/84 149/256/84
f 149/256/85 150/255/85 146/257/85 145/258/85
f 147/259/86 151/254/86 149/256/86 145/260/86
f 152/253/87 148/261/87 146/262/87 150/255/87
